<svg xmlns="http://www.w3.org/2000/svg" viewBox="0 0 108 108" width="108" height="108">
    <g transform="translate(54 54) scale(0.75 0.75) translate(-54 -54)">
        <path fill="#00A1FF" d="M90,34.3 c-1,-3.8 -4.1,-6.9 -7.9,-7.9 C75.1,24.5 54,24.5 54,24.5 s-21.1,0 -28.1,1.9 c-3.8,1 -6.9,4.1 -7.9,7.9 C16,41.4 16,54 16,54 s0,12.6 2,19.7 c1,3.8 4.1,6.9 7.9,7.9 c7,1.9 28.1,1.9 28.1,1.9 s21.1,0 28.1,-1.9 c3.8,-1 6.9,-4.1 7.9,-7.9 c2,-7.1 2,-19.7 2,-19.7 S92,41.4 90,34.3 z"/>
        <path fill="#FFFFFF" d="M44.8,69.6 L73.2,54 44.8,38.4 z"/>
    </g>
</svg>